PathFileType  4	(X/Y/Z) C:\Users\antoi\Documents\MyRepositories\mobilecap\ResultsAnalysis
DataRate	CameraRate	NumFrames	NumMarkers	Units	OrigDataRate	OrigDataStartFrame	OrigNumFrames
100.0	100.0	4	51	mm	100.0	124	197
Frame#	Time	r_knee			r_shank_antsup			r_ankle			r_calc			r_5meta			r_toe			L_knee			L_shank_antsup			L_ankle			L_calc			L_5meta			L_toe			r_sh2			r_sh3			r_sh4			L_sh2			L_sh3			r_thigh1			r_thigh2			r_thigh3			r_thigh4			r_thigh5			L_thigh1			L_thigh2			L_thigh3			L_thigh4			r.ASIS			r.PSIS			L.ASIS			L.PSIS			C7			R_Shoulder			L_Shoulder			R_Sternum			L_Sternum			R_humerus			R_elbow_med			R_elbow_lat			R_forearm			R_wrist_radius			R_wrist_ulna			L_humerus			L_elbow_med			L_elbow_lat			L_forearm			L_wrist_radius			L_wrist_ulna			R_HJC			L_HJC			R_HJC_reg			L_HJC_reg			
		X1	Y1	Z1	X2	Y2	Z2	X3	Y3	Z3	X4	Y4	Z4	X5	Y5	Z5	X6	Y6	Z6	X7	Y7	Z7	X8	Y8	Z8	X9	Y9	Z9	X10	Y10	Z10	X11	Y11	Z11	X12	Y12	Z12	X13	Y13	Z13	X14	Y14	Z14	X15	Y15	Z15	X16	Y16	Z16	X17	Y17	Z17	X18	Y18	Z18	X19	Y19	Z19	X20	Y20	Z20	X21	Y21	Z21	X22	Y22	Z22	X23	Y23	Z23	X24	Y24	Z24	X25	Y25	Z25	X26	Y26	Z26	X27	Y27	Z27	X28	Y28	Z28	X29	Y29	Z29	X30	Y30	Z30	X31	Y31	Z31	X32	Y32	Z32	X33	Y33	Z33	X34	Y34	Z34	X35	Y35	Z35	X36	Y36	Z36	X37	Y37	Z37	X38	Y38	Z38	X39	Y39	Z39	X40	Y40	Z40	X41	Y41	Z41	X42	Y42	Z42	X43	Y43	Z43	X44	Y44	Z44	X45	Y45	Z45	X46	Y46	Z46	X47	Y47	Z47	X48	Y48	Z48	X49	Y49	Z49	X50	Y50	Z50	X51	Y51	Z51	

124	1.23000000	664.30508	458.49521	-86.40265	653.13315	385.97296	-89.39569	364.54716	225.88694	-146.78113	328.41280	266.45445	-201.48040	353.92928	105.07453	-129.66362	404.34116	78.48963	-170.97544	847.30796	467.41499	-355.90426	890.03712	388.04578	-334.82096	843.71859	82.64345	-346.30140	782.66577	48.57593	-310.59335	952.80887	44.13070	-354.16138	993.02036	65.42890	-292.33477	556.16537	327.17755	-97.74280	613.70687	447.48255	-68.94568	508.87257	395.33895	-84.03381	819.16469	399.06229	-391.38378	820.15370	276.80683	-398.22490	728.56295	698.98520	-57.39764	726.20938	585.56247	-61.66604	660.31471	565.24905	-69.53264	617.36954	701.42302	-80.77188	619.36295	586.72000	-105.18669	840.59237	744.28234	-411.86970	867.13824	610.49569	-381.86360	734.06095	715.06573	-435.13269	754.57731	588.21298	-385.84589	793.37895	910.56525	-117.92187	602.87732	955.79763	-230.60221	836.07224	914.26977	-333.71310	620.29310	955.35735	-311.03477	737.09114	1358.57667	-362.35594	788.76486	1389.32220	-212.42153	789.73606	1269.04454	-471.20876	854.39799	1301.71907	-306.77456	855.23953	1285.66454	-342.22394	781.91407	1299.89431	-113.89826	625.53935	1146.78410	-59.08427	675.99949	1149.55884	-14.72899	717.53682	1063.73963	-4.75244	717.59008	917.33835	9.12042	699.30863	925.80115	43.69202	795.28238	1154.17890	-510.76457	736.95990	942.22080	-453.14752	761.63677	952.67111	-514.23764	831.06279	869.36904	-515.01750	886.51996	756.66520	-488.71647	852.64629	741.30204	-506.81963	707.41438	829.43306	-142.61473	749.23323	834.49924	-345.78645	723.64445	850.61562	-163.45734	754.37725	849.83976	-305.35392	
125	1.24000000	683.48790	459.47129	-84.27477	672.36140	387.09498	-87.27548	382.17136	231.84973	-148.04479	346.45470	271.19925	-203.86338	371.82422	111.94631	-128.57070	423.03621	84.99665	-168.94363	850.54086	467.87658	-355.83596	892.67943	388.01612	-334.84204	843.53639	82.91403	-346.23689	782.62346	48.73997	-310.63510	952.59661	44.20952	-354.20020	993.01226	65.28847	-292.20152	574.57694	329.80661	-96.98424	633.29197	449.06972	-67.56927	528.14965	398.19823	-83.92977	821.53574	399.53713	-391.25481	821.46290	277.30377	-398.24440	740.85180	701.10910	-56.08475	741.67744	587.56971	-59.41237	676.47528	565.28882	-68.24252	629.99505	700.22882	-80.56428	635.62590	585.33411	-104.48449	847.41422	744.89292	-411.65777	872.39344	610.89578	-381.60263	740.61855	716.57427	-434.55123	759.51817	590.05587	-384.95755	801.37198	912.37583	-116.99409	611.39749	956.77458	-231.39511	845.12716	915.25712	-332.74873	629.35595	956.66083	-311.65908	747.65204	1358.17989	-365.92887	798.51438	1390.74532	-216.13679	800.19504	1267.45332	-473.54298	864.52830	1302.05301	-309.24976	865.43925	1285.64170	-344.52199	790.85482	1302.78006	-116.33971	633.92961	1150.61331	-60.36960	683.95115	1154.12555	-15.81861	725.25702	1068.48925	-4.49465	724.97948	922.45014	11.49735	706.31976	931.22050	45.83091	806.01166	1152.30730	-512.10802	748.52905	940.05878	-453.13470	773.25195	950.44658	-514.18096	843.34038	867.95596	-513.62766	899.98030	756.33414	-485.12869	866.31975	740.23409	-503.61579	715.45079	831.05021	-142.18350	758.58175	835.46613	-345.10389	732.09129	851.24793	-163.26141	763.82490	851.04976	-305.04449	
126	1.25000000	702.48031	460.85229	-82.25457	691.54749	388.54275	-85.24911	400.52416	237.08337	-149.31758	364.53798	274.79771	-206.04953	391.71868	118.10082	-127.29331	443.62042	91.21581	-167.01575	853.76646	468.35205	-355.91430	895.23169	387.98342	-335.05517	843.36829	83.19291	-346.24290	782.60126	48.94058	-310.65501	952.40945	44.25086	-354.29066	992.97847	65.16040	-292.15433	593.20630	332.47607	-96.22915	652.61937	450.90611	-66.39475	547.48270	400.88736	-83.94199	823.76784	400.04876	-391.23697	822.62323	277.83918	-398.35145	752.89294	703.46655	-54.68825	756.82995	589.89717	-57.17691	692.45056	565.68024	-67.03405	642.56731	699.30872	-80.38245	651.82541	584.34450	-103.85613	854.03921	745.50352	-411.49458	877.58284	611.36989	-381.46501	747.08243	718.04775	-434.15289	764.51174	591.80060	-384.27685	809.32187	914.23763	-116.02562	619.83515	957.80877	-231.87984	853.96702	916.37706	-331.80360	638.27918	958.02868	-311.95528	758.03139	1357.83620	-369.29078	808.06096	1392.06518	-219.57815	810.42407	1265.96142	-475.70842	874.48816	1302.34160	-311.50500	875.40759	1285.57881	-346.60700	799.37142	1305.56006	-118.57336	642.29536	1153.67680	-62.36891	691.41711	1158.31641	-17.19554	732.73451	1073.06107	-3.94869	732.56190	927.41103	14.42434	713.25910	936.51218	48.25766	816.54169	1150.55411	-513.31283	759.91532	938.04320	-453.16004	784.81286	948.37170	-514.10225	855.56347	866.70438	-512.20313	913.29859	756.11667	-481.60559	879.82778	739.39810	-500.49895	723.49843	832.70331	-141.62507	767.71125	836.55340	-344.33366	740.46529	851.95540	-162.98979	773.11495	852.34834	-304.69739	
127	1.26000000	721.33194	462.51242	-80.32993	710.75253	390.18342	-83.34369	419.51887	241.41389	-150.51317	382.85007	277.29673	-207.98967	413.09654	123.24846	-126.00781	465.55826	96.70508	-165.29102	857.03211	468.75708	-356.07378	897.74544	387.88414	-335.38571	843.29212	83.44299	-346.28166	782.61159	49.17673	-310.63813	952.29463	44.22471	-354.39714	992.96463	64.97152	-292.15939	612.09981	334.95122	-95.47133	671.79189	452.82324	-65.32709	566.86816	403.27085	-83.96266	825.95923	400.54912	-391.26355	823.74582	278.36674	-398.47874	764.74538	705.95033	-53.24146	771.75686	592.40143	-55.02486	708.25467	566.35600	-65.86533	655.07225	698.61170	-80.18260	667.92924	583.67692	-103.24793	860.59369	746.01603	-411.33880	882.76257	611.78091	-381.40533	753.52146	719.48869	-433.90411	769.55065	593.37768	-383.82712	817.31744	916.12481	-115.12331	628.24133	958.93081	-232.02133	862.60668	917.55740	-330.97812	647.05011	959.44262	-311.91782	768.23978	1357.57785	-372.42052	817.47486	1393.26585	-222.73795	820.45449	1264.58616	-477.70366	884.30171	1302.54201	-313.55461	885.16482	1285.43297	-348.49553	807.59124	1308.18082	-120.61851	650.66441	1156.04760	-64.94736	698.52404	1162.11003	-18.79919	740.02876	1077.39956	-3.17948	740.33649	932.16974	17.77744	720.19548	941.62418	50.87327	826.90080	1148.93484	-514.37659	771.07876	936.27247	-453.18779	796.32445	946.48871	-513.97011	867.74353	865.61783	-510.73509	926.44605	755.99272	-478.19670	893.19290	738.79439	-497.47901	731.62173	834.39013	-140.95926	776.57585	837.71283	-343.52189	748.82997	852.78172	-162.64858	782.18993	853.69257	-304.33138	
